<?xml version="1.0" encoding="utf-8"?>
<!-- Generator: Adobe Illustrator 19.2.0, SVG Export Plug-In . SVG Version: 6.00 Build 0)  -->
<svg version="1.1" id="Capa_1" xmlns="http://www.w3.org/2000/svg" xmlns:xlink="http://www.w3.org/1999/xlink" x="0px" y="0px"
	 viewBox="0 0 95.7 56.8" style="enable-background:new 0 0 95.7 56.8;" xml:space="preserve">
<style type="text/css">
	.st0{fill:#91DC5A;}
</style>
<g>
	<g>
		<path class="st0" d="M65.6,47.4c0,5.2,4,9.4,8.9,9.4s8.9-4.2,8.9-9.4s-4-9.4-8.9-9.4C69.6,38,65.6,42.2,65.6,47.4z M70.6,47.4
			c0-2.3,1.7-4.1,3.9-4.1s3.9,1.8,3.9,4.1s-1.7,4.1-3.9,4.1S70.6,49.7,70.6,47.4z"/>
		<path class="st0" d="M13.4,47.4c0,5.2,4,9.4,8.9,9.4s8.9-4.2,8.9-9.4s-4-9.4-8.9-9.4S13.4,42.2,13.4,47.4z M18.4,47.4
			c0-2.3,1.7-4.1,3.9-4.1s3.9,1.8,3.9,4.1s-1.7,4.1-3.9,4.1S18.4,49.7,18.4,47.4z"/>
		<path class="st0" d="M0,5.6v36.2c0,3.1,2.4,5.6,5.3,5.6h6.5c0-6.1,4.7-11.1,10.5-11.1c5.8,0,10.5,5,10.5,11.1H64
			c0-6.1,4.7-11.1,10.5-11.1c5.8,0,10.5,5,10.5,11.1h5.4c2.9,0,5.3-2.5,5.3-5.6V28.9c0-3.1-0.5-8.1-1.1-11.1L91.4,5.5
			C90.9,2.5,88,0,85.1,0H5.3C2.4,0,0,2.5,0,5.6z M73.6,23.7V3.4h10.5c2.2,0,4.3,1.9,4.7,4.1l2.8,12c0.3,1.9-0.7,3.5-2.3,4L87,17.5
			c-0.3-0.8-1.3-1.3-2.1-0.9c-0.8,0.4-1.2,1.3-0.8,2.2l2,4.9H73.6L73.6,23.7z M50,3.4h20.4v20.3H50V3.4z M26.3,3.4h20.4v20.3H26.3
			V3.4z M3.2,7.6c0-2.3,1.8-4.2,4-4.2h15.9v20.3H7.2c-2.2,0-4-1.9-4-4.2C3.2,19.5,3.2,7.6,3.2,7.6z"/>
	</g>
</g>
</svg>
