<?xml version="1.0" encoding="UTF-8" standalone="no"?>
<!DOCTYPE svg PUBLIC "-//W3C//DTD SVG 1.1//EN" "http://www.w3.org/Graphics/SVG/1.1/DTD/svg11.dtd">
<svg version="1.1" xmlns="http://www.w3.org/2000/svg" xmlns:xlink="http://www.w3.org/1999/xlink" preserveAspectRatio="xMidYMid meet" viewBox="0 0 2500 2500" width="2500" height="2500"><defs>
<path d="M683.2 384.8L683.4 385.6L682.1 386L681.1 384.5L682.3 382.6L683 382L683.5 382.4L683.2 384.8Z" id="a1mUV4lV4c"></path>
<path d="M468.9 1875C468.9 1875 468.9 1875 468.9 1875C468.9 1875 468.9 1875 468.9 1875C468.9 1875 468.9 1875 468.9 1875C468.9 1875 468.9 1875 468.9 1875Z" id="b26zaBNWMG"></path>
<path d="M471.2 1863.5C471.2 1863.5 471.2 1863.5 471.2 1863.5C471.2 1863.5 471.2 1863.5 471.2 1863.5C471.2 1863.5 471.2 1863.5 471.2 1863.5C471.2 1863.5 471.2 1863.5 471.2 1863.5Z" id="df5U20b8E"></path>
<path d="M417.9 177.5C417.9 181.64 414.54 185 410.4 185C406.26 185 402.9 181.64 402.9 177.5C402.9 173.36 406.26 170 410.4 170C414.54 170 417.9 173.36 417.9 177.5Z" id="dWdqzsMKz"></path>
<path d="M465.8 407.3C465.8 411.44 462.44 414.8 458.3 414.8C454.16 414.8 450.8 411.44 450.8 407.3C450.8 403.16 454.16 399.8 458.3 399.8C462.44 399.8 465.8 403.16 465.8 407.3Z" id="b5sQ5Zb9Q"></path>
<path d="M419.7 613.73C419.7 617.87 416.34 621.23 412.2 621.23C408.06 621.23 404.7 617.87 404.7 613.73C404.7 609.59 408.06 606.23 412.2 606.23C416.34 606.23 419.7 609.59 419.7 613.73Z" id="bf47d9HRy"></path>
<path d="M576.1 849.65C576.1 853.79 572.74 857.15 568.6 857.15C564.46 857.15 561.1 853.79 561.1 849.65C561.1 845.51 564.46 842.15 568.6 842.15C572.74 842.15 576.1 845.51 576.1 849.65Z" id="b5I5E6w8cc"></path>
<path d="M795 1114.63C795 1118.76 791.64 1122.13 787.5 1122.13C783.36 1122.13 780 1118.76 780 1114.63C780 1110.49 783.36 1107.13 787.5 1107.13C791.64 1107.13 795 1110.49 795 1114.63Z" id="b28DOfxQ1e"></path>
<path d="M854 1387.2C854 1391.34 850.64 1394.7 846.5 1394.7C842.36 1394.7 839 1391.34 839 1387.2C839 1383.06 842.36 1379.7 846.5 1379.7C850.64 1379.7 854 1383.06 854 1387.2Z" id="e1ypHNQ0Yn"></path>
<path d="M753.7 1663C753.7 1667.14 750.34 1670.5 746.2 1670.5C742.06 1670.5 738.7 1667.14 738.7 1663C738.7 1658.86 742.06 1655.5 746.2 1655.5C750.34 1655.5 753.7 1658.86 753.7 1663Z" id="aapuWAyb6v"></path>
<path d="M483.9 1813C483.9 1817.14 480.54 1820.5 476.4 1820.5C472.26 1820.5 468.9 1817.14 468.9 1813C468.9 1808.86 472.26 1805.5 476.4 1805.5C480.54 1805.5 483.9 1808.86 483.9 1813Z" id="a4zA85HLb"></path>
</defs><g><g><g><use xlink:href="#a1mUV4lV4c" opacity="1" fill="#7c7c7c" fill-opacity="1"></use><g><use xlink:href="#a1mUV4lV4c" opacity="1" fill-opacity="0" stroke="#ffffff" stroke-width="2" stroke-opacity="1"></use></g></g><g><use xlink:href="#b26zaBNWMG" opacity="1" fill="#7c7c7c" fill-opacity="1"></use><g><use xlink:href="#b26zaBNWMG" opacity="1" fill-opacity="0" stroke="#ffffff" stroke-width="2" stroke-opacity="1"></use></g></g><g><use xlink:href="#df5U20b8E" opacity="1" fill="#7c7c7c" fill-opacity="1"></use><g><use xlink:href="#df5U20b8E" opacity="1" fill-opacity="0" stroke="#ffffff" stroke-width="2" stroke-opacity="1"></use></g></g><g><use xlink:href="#dWdqzsMKz" opacity="1" fill="#ec4507" fill-opacity="1"></use></g><g><use xlink:href="#b5sQ5Zb9Q" opacity="1" fill="#ec4507" fill-opacity="1"></use></g><g><use xlink:href="#bf47d9HRy" opacity="1" fill="#ec4507" fill-opacity="1"></use></g><g><use xlink:href="#b5I5E6w8cc" opacity="1" fill="#ec4507" fill-opacity="1"></use></g><g><use xlink:href="#b28DOfxQ1e" opacity="1" fill="#ec4507" fill-opacity="1"></use></g><g><use xlink:href="#e1ypHNQ0Yn" opacity="1" fill="#ec4507" fill-opacity="1"></use></g><g><use xlink:href="#aapuWAyb6v" opacity="1" fill="#ec4507" fill-opacity="1"></use></g><g><use xlink:href="#a4zA85HLb" opacity="1" fill="#ec4507" fill-opacity="1"></use></g></g></g></svg>