<?xml version="1.0" encoding="utf-8"?>
<!-- Generator: Adobe Illustrator 19.2.0, SVG Export Plug-In . SVG Version: 6.00 Build 0)  -->
<svg version="1.1" id="Layer_1" xmlns="http://www.w3.org/2000/svg" xmlns:xlink="http://www.w3.org/1999/xlink" x="0px" y="0px"
	 viewBox="0 0 60 60" style="enable-background:new 0 0 60 60;" xml:space="preserve">
<style type="text/css">
	.st0{fill:#91DC5A;}
</style>
<g>
	<g>
		<path class="st0" d="M41.6,48.4c0,4.3,2.5,7.8,5.5,7.8c3,0,5.5-3.5,5.5-7.8s-2.5-7.8-5.5-7.8C44,40.5,41.6,44,41.6,48.4z
			 M44.7,48.4c0-1.9,1.1-3.4,2.4-3.4c1.4,0,2.4,1.5,2.4,3.4s-1.1,3.4-2.4,3.4C45.7,51.8,44.7,50.3,44.7,48.4z"/>
		<path class="st0" d="M9.3,48.4c0,4.3,2.5,7.8,5.5,7.8s5.5-3.5,5.5-7.8s-2.5-7.8-5.5-7.8S9.3,44,9.3,48.4z M12.4,48.4
			c0-1.9,1.1-3.4,2.4-3.4s2.4,1.5,2.4,3.4s-1.1,3.4-2.4,3.4S12.4,50.3,12.4,48.4z"/>
		<path class="st0" d="M1,13.5v30.2c0,2.6,1.5,4.7,3.3,4.7h4c0-5.1,2.9-9.3,6.5-9.3s6.5,4.2,6.5,9.3h19.3c0-5.1,2.9-9.3,6.5-9.3
			c3.6,0,6.5,4.2,6.5,9.3h3.3c1.8,0,3.3-2.1,3.3-4.7V32.9c0-2.6-0.3-6.8-0.7-9.3l-2-10.3c-0.3-2.5-2.1-4.6-3.9-4.6H4.3
			C2.5,8.8,1,10.9,1,13.5z M46.5,28.6V11.6H53c1.4,0,2.7,1.6,2.9,3.4l1.7,10c0.2,1.6-0.4,2.9-1.4,3.3l-1.4-5
			c-0.2-0.7-0.8-1.1-1.3-0.8C53,23,52.8,23.7,53,24.5l1.2,4.1H46.5L46.5,28.6z M31.9,11.6h12.6v16.9H31.9V11.6z M17.3,11.6h12.6
			v16.9H17.3V11.6z M3,15.1c0-1.9,1.1-3.5,2.5-3.5h9.8v16.9H5.5C4.1,28.6,3,27,3,25.1C3,25.1,3,15.1,3,15.1z"/>
	</g>
</g>
</svg>
